<?xml version="1.0" encoding="UTF-8"?><svg id="Layer_2" xmlns="http://www.w3.org/2000/svg" viewBox="0 0 1421.59 398.46"><defs><style>.cls-1{letter-spacing:0em;}.cls-2{letter-spacing:0em;}.cls-3{letter-spacing:0em;}.cls-4{letter-spacing:0em;}.cls-5{letter-spacing:0em;}.cls-6{font-family:RecoletaAlt-Regular, 'Recoleta Alt';font-size:132.24px;}.cls-6,.cls-7,.cls-8{fill:#30706a;}.cls-7{fill-rule:evenodd;}.cls-7,.cls-8{stroke-width:0px;}</style></defs><g id="Layer_1_copy_2"><path class="cls-8" d="M130.39,392.38c-34.83,0-67.57-13.56-92.2-38.19C13.56,329.56,0,296.82,0,261.99c0-69.33,54.18-126.52,123.35-130.2,6.19-.33,11.49,4.43,11.82,10.63.33,6.2-4.43,11.49-10.63,11.82-57.23,3.05-102.07,50.38-102.07,107.75s48.41,107.91,107.91,107.91c23.47,0,45.78-7.4,64.52-21.41,18.13-13.55,31.81-32.85,38.51-54.33,1.85-5.93,8.15-9.23,14.08-7.38,5.93,1.85,9.23,8.15,7.38,14.08-8.1,25.97-24.62,49.28-46.51,65.65-22.66,16.93-49.62,25.88-77.98,25.88Z"/><path class="cls-7" d="M158.88,216.81V88.51c0-10.81,8.11-22.09,18.02-25.07l139.9-42.1c9.91-2.98,18.02,3.42,18.02,14.23v203.11c-5.1,24.18-26.56,42.32-52.25,42.32-29.49,0-53.4-23.91-53.4-53.4s23.91-53.4,53.4-53.4c10.53,0,20.35,3.05,28.62,8.31v-92.79l-128.68,38.72v142.22c-4.28,25.21-26.22,44.41-52.65,44.41-29.49,0-53.4-23.91-53.4-53.4s23.91-53.4,53.4-53.4c10.7,0,20.66,3.15,29.02,8.57h0ZM129.86,233.6c-15.49,0-28.05,12.56-28.05,28.05s12.56,28.05,28.05,28.05,28.05-12.56,28.05-28.05-12.56-28.05-28.05-28.05Z"/><text class="cls-6" transform="translate(537.57 113.07)"><tspan x="0" y="0">Live</tspan><tspan class="cls-2" x="0" y="122.6">E</tspan><tspan class="cls-5" x="79.08" y="122.6">n</tspan><tspan class="cls-4" x="153.93" y="122.6">t</tspan><tspan x="200.47" y="122.6">er</tspan><tspan class="cls-3" x="316.58" y="122.6">t</tspan><tspan x="363.13" y="122.6">ainme</tspan><tspan class="cls-5" x="732.34" y="122.6">n</tspan><tspan x="807.19" y="122.6">t </tspan><tspan x="0" y="245.2">G</tspan><tspan class="cls-1" x="96.14" y="245.2">r</tspan><tspan x="145.33" y="245.2">oup</tspan></text><path class="cls-8" d="M509.47,360.23c-2.66,0-4.82-2.16-4.82-4.82V25.42c0-2.66,2.16-4.82,4.82-4.82s4.82,2.16,4.82,4.82v329.98c0,2.66-2.16,4.82-4.82,4.82Z"/></g></svg>