<?xml version="1.0" encoding="UTF-8"?>
<svg id="Layer_1" data-name="Layer 1" xmlns="http://www.w3.org/2000/svg" version="1.1" viewBox="0 0 27 30">
  <defs>
    <style>
      .cls-1 {
        fill: #474747;
        stroke-width: 0px;
      }
    </style>
  </defs>
  <path class="cls-1" d="M24.8,29.5c-.8,0-1.5-.7-1.5-1.5v-1.6c0-5.4-4.4-9.9-9.9-9.9S3.5,20.9,3.5,26.4v1.6c0,.8-.7,1.5-1.5,1.5s-1.5-.7-1.5-1.5v-1.6c0-5.3,3.2-9.8,7.7-11.8-1.7-1.5-2.8-3.7-2.8-6.1C5.4,4.1,9,.5,13.4.5s8,3.6,8,8-1.1,4.6-2.8,6.1c4.5,2,7.7,6.5,7.7,11.8v1.6c0,.8-.7,1.5-1.5,1.5ZM13.4,3.5c-2.8,0-5,2.2-5,5s2.2,5,5,5,5-2.2,5-5-2.2-5-5-5Z"/>
</svg>