<?xml version="1.0" encoding="UTF-8"?>
<svg id="Layer_1" data-name="Layer 1" xmlns="http://www.w3.org/2000/svg" version="1.1" viewBox="0 0 35 30">
  <defs>
    <style>
      .cls-1 {
        fill: #474747;
        stroke-width: 0px;
      }
    </style>
  </defs>
  <path class="cls-1" d="M17.5,29.5c-.9,0-1.9-.4-2.6-1.1l-10.5-10.9C.6,13.6.6,7.3,4.4,3.5c1.8-1.8,4.1-2.9,6.7-3,2.4,0,4.7.8,6.5,2.3,1.7-1.5,3.9-2.3,6.2-2.3,2.6,0,5.1,1.1,6.9,3,1.8,1.9,2.8,4.4,2.8,7,0,2.6-1,5.1-2.8,7-1.2,1.2-2.3,2.4-3.5,3.7-2.3,2.5-4.7,5-7.2,7.4-.7.7-1.6,1-2.5,1ZM11.3,3.5c-1.7,0-3.5.7-4.8,2-2.6,2.7-2.6,7.1,0,9.9l10.5,10.9c.2.2.6.2.9,0,2.4-2.3,4.8-4.8,7.1-7.3,1.2-1.2,2.3-2.5,3.5-3.7,1.3-1.3,2-3.1,2-4.9h0c0-1.9-.7-3.6-2-4.9-1.2-1.3-3-2-4.8-2-1.8,0-3.5.7-4.7,2l-.4.4c-.3.3-.7.5-1.1.5h0c-.4,0-.8-.2-1.1-.5l-.4-.4c0,0-.2-.2-.2-.2-1.3-1.2-2.9-1.8-4.5-1.8Z"/>
</svg>