<?xml version="1.0" encoding="UTF-8"?>
<svg id="Layer_1" data-name="Layer 1" xmlns="http://www.w3.org/2000/svg" version="1.1" viewBox="0 0 145 172">
  <defs>
    <style>
      .cls-1 {
        fill: #474747;
        stroke-width: 0px;
      }
    </style>
  </defs>
  <path class="cls-1" d="M128.9,33.5c-.5,0-1-.2-1.4-.6l-8.5-8.5-3-3.1c-1.8-1.7-2.7-4.1-2.7-6.6,0-2.5,1-4.9,2.7-6.6,2.7-2.7,6.7-3.5,10.2-2,1,.4,1.9,1,2.6,1.7,3.7-3.2,9.3-3,12.8.5,1.8,1.8,2.7,4.1,2.7,6.6,0,2.5-1,4.9-2.7,6.6l-11.3,11.3c-.4.4-.9.6-1.4.6ZM122.7,9.3c-1.4,0-2.7.5-3.7,1.6-1,1-1.6,2.4-1.6,3.8,0,1.4.6,2.8,1.6,3.8l3,3.1,7,7,9.9-9.9c1-1,1.6-2.4,1.6-3.8,0-1.4-.6-2.8-1.6-3.8,0,0,0,0,0,0-2-2.1-5.4-2.1-7.5-.2l-.9,1c-.4.4-.9.6-1.4.6-.6,0-1.1-.2-1.5-.6l-1.1-1.1c-.5-.5-1.1-.9-1.7-1.2-.7-.3-1.4-.4-2-.4Z"/>
  <path class="cls-1" d="M36.5,171.5c-19.9,0-36-16.1-36-36s16.1-36,36-36,20.4,4.7,27,12.2V5c0-1.9,1.2-3.6,3-4.2,1.8-.6,3.8-.1,5,1.4,7.9,9.5,16.7,18.3,26.1,26.2,10.6,6.3,16.4,18.6,14.5,30.8-.6,4-2.1,7.8-4.2,11.3-1.3,2.1-4.1,2.7-6.2,1.4-2.1-1.3-2.7-4.1-1.4-6.2,1.5-2.4,2.5-5.1,3-7.9,1.4-8.7-2.8-17.4-10.4-21.8-.2-.1-.4-.3-.6-.4-6.9-5.7-13.5-12-19.6-18.5v118.6c0,19.9-16.1,36-36,36ZM36.5,108.5c-14.9,0-27,12.1-27,27s12.1,27,27,27,27-12.1,27-27-12.1-27-27-27Z"/>
</svg>