<?xml version="1.0" encoding="UTF-8"?>
<svg id="Layer_1" data-name="Layer 1" xmlns="http://www.w3.org/2000/svg" version="1.1" viewBox="0 0 35 35">
  <defs>
    <style>
      .cls-1 {
        fill: #474747;
        stroke-width: 0px;
      }
    </style>
  </defs>
  <path class="cls-1" d="M10.4.4c-1.8,0-3.1.4-4.2.8-1.1.4-2.2,1.1-3,2-.9.9-1.5,1.9-2,3-.4,1.1-.7,2.3-.8,4.2,0,1.8,0,2.4,0,7.1,0,4.7,0,5.3.1,7.1,0,1.8.4,3.1.8,4.2.4,1.1,1.1,2.2,2,3,.9.9,1.9,1.5,3,2,1.1.4,2.3.7,4.2.8,1.8,0,2.4,0,7.1,0,4.7,0,5.3,0,7.1-.1,1.8,0,3.1-.4,4.2-.8,1.1-.4,2.2-1.1,3-2,.9-.9,1.5-1.9,2-3,.4-1.1.7-2.3.8-4.2,0-1.8,0-2.4,0-7.1,0-4.7,0-5.2-.1-7.1,0-1.8-.4-3.1-.8-4.2-.4-1.1-1.1-2.2-2-3-.9-.9-1.9-1.5-3-2-1.1-.4-2.3-.7-4.2-.8-1.8,0-2.4-.1-7.1,0-4.7,0-5.2,0-7.1.1ZM10.6,31.5c-1.7,0-2.6-.4-3.2-.6-.7-.3-1.4-.7-2-1.3-.6-.6-1-1.2-1.3-2-.2-.6-.5-1.5-.6-3.2,0-1.8-.1-2.4-.1-6.9,0-4.6,0-5.1,0-6.9,0-1.7.4-2.6.6-3.2.3-.7.7-1.4,1.3-2,.6-.6,1.2-1,2-1.3.6-.2,1.5-.5,3.2-.6,1.8,0,2.4-.1,6.9-.1,4.6,0,5.1,0,6.9,0,1.7,0,2.6.3,3.2.6.8.3,1.4.7,2,1.3.6.6,1,1.2,1.3,2,.2.6.5,1.5.6,3.2,0,1.8.1,2.4.1,6.9,0,4.6,0,5.1,0,6.9,0,1.7-.4,2.6-.6,3.2-.3.7-.7,1.4-1.3,2-.6.6-1.2,1-2,1.3-.6.2-1.5.5-3.2.6-1.8,0-2.4.1-6.9.1-4.6,0-5.1,0-6.9,0M24.6,8.3c0,1.1.9,2.1,2,2.1,1.1,0,2.1-.9,2.1-2,0,0,0,0,0,0,0-1.1-1-2-2.1-2-1.1,0-2,.9-2,2ZM8.7,17.5c0,4.9,3.8,8.9,8.7,8.9,4.9,0,8.9-3.8,8.9-8.7,0,0,0-.2,0-.3,0-4.9-4.1-8.8-9-8.7-4.8,0-8.6,3.9-8.7,8.7ZM11.8,17.5c0-3.2,2.6-5.7,5.7-5.7,3.2,0,5.7,2.6,5.7,5.7,0,3.2-2.6,5.7-5.7,5.7s-5.7-2.6-5.7-5.7Z"/>
</svg>