<?xml version="1.0" encoding="UTF-8"?>
<svg id="Layer_1" data-name="Layer 1" xmlns="http://www.w3.org/2000/svg" version="1.1" viewBox="0 0 11 15">
  <defs>
    <style>
      .cls-1 {
        fill: #474747;
        stroke-width: 0px;
      }
    </style>
  </defs>
  <path class="cls-1" d="M5.2,15c-.2,0-.3,0-.4-.2l-.7-1.3c-1.5-2.6-3-5.1-3.5-6C.2,6.7,0,6,0,5.2,0,2.3,2.3,0,5.2,0c2.9,0,5.2,2.3,5.2,5.2,0,.8-.2,1.6-.5,2.3h0c-.5,1-1.9,3.5-3.5,6l-.7,1.3c0,.2-.3.2-.4.2h0ZM5.2,1c-2.3,0-4.2,1.9-4.2,4.2,0,.6.1,1.3.4,1.8.5,1,2,3.5,3.4,6l.3.5.3-.5c1.5-2.5,3-5,3.4-6h0c1-2.1.1-4.6-2-5.6-.6-.3-1.2-.4-1.8-.4Z"/>
  <path class="cls-1" d="M5.2,7.4c-1.3,0-2.4-1.1-2.4-2.4,0-1.3,1.1-2.4,2.4-2.4,1.3,0,2.4,1.1,2.4,2.4,0,1.3-1.1,2.4-2.4,2.4ZM5.2,3.6c-.8,0-1.4.6-1.4,1.4s.6,1.4,1.4,1.4,1.4-.6,1.4-1.4h0c0-.8-.6-1.4-1.4-1.4h0Z"/>
</svg>