<?xml version="1.0" encoding="UTF-8"?>
<svg id="Layer_1" data-name="Layer 1" xmlns="http://www.w3.org/2000/svg" version="1.1" viewBox="0 0 16 17">
  <defs>
    <style>
      .cls-1 {
        fill: #474747;
        stroke-width: 0px;
      }
    </style>
  </defs>
  <path class="cls-1" d="M6.5,11.9v2.1c0,1.4-.9,2.5-2.2,2.9s-1.1,0-1.6,0c-4.1-1.2-2.6-6.8,1.9-5.8v-.2s0-1.3,0-1.3V2.9c0-.6.5-1.2,1.1-1.3L14,0c.4,0,.8,0,1.1.3.3.2.5.6.5,1v10.6c0,1.4-.9,2.5-2.2,2.9s-1.1,0-1.6,0c-4.1-1.2-2.6-6.8,1.9-5.8v-.2s0-6.8,0-6.8l-7.3,1.3v8.6Z"/>
</svg>