<?xml version="1.0" encoding="UTF-8"?>
<svg id="Layer_1" data-name="Layer 1" xmlns="http://www.w3.org/2000/svg" version="1.1" viewBox="0 0 73 73">
  <defs>
    <style>
      .cls-1 {
        fill: #474747;
        stroke-width: 0px;
      }
    </style>
  </defs>
  <path class="cls-1" d="M36.5,73C16.4,73,0,56.6,0,36.5S16.4,0,36.5,0s36.5,16.4,36.5,36.5-16.4,36.5-36.5,36.5ZM36.5,3C18,3,3,18,3,36.5s15,33.5,33.5,33.5,33.5-15,33.5-33.5S55,3,36.5,3Z"/>
  <g>
    <path class="cls-1" d="M50.7,38.3l-20.9,11.9c-.7.4-1.6.2-2-.6-.1-.2-.2-.5-.2-.7v-23.7c0-.8.7-1.5,1.5-1.5.3,0,.5,0,.7.2l20.9,11.9c.7.4,1,1.3.6,2-.1.2-.3.4-.6.6h0Z"/>
    <path class="cls-1" d="M29,51.9c-1,0-2.1-.5-2.6-1.5-.3-.5-.4-1-.4-1.5v-23.7c0-1.7,1.3-3,3-3s1,.1,1.5.4l20.9,11.9c1.4.8,1.9,2.7,1.1,4.1-.3.5-.7.9-1.1,1.1l-.7-1.3.7,1.3-20.9,11.9c-.5.3-1,.4-1.5.4Z"/>
  </g>
</svg>