<?xml version="1.0" encoding="UTF-8"?>
<svg id="Layer_1" data-name="Layer 1" xmlns="http://www.w3.org/2000/svg" version="1.1" viewBox="0 0 167 172">
  <defs>
    <style>
      .cls-1 {
        fill: #474747;
        stroke-width: 0px;
      }
    </style>
  </defs>
  <path class="cls-1" d="M122.8,171.5c-1.4,0-2.7-.6-3.5-1.7l-34-42.7c-4-4.8-6.3-10.8-6.2-17.1,0-3,.5-5.9,1.4-8.6h-27.5c-24,0-43.5,19.6-43.5,43.7v21.9c0,2.5-2,4.5-4.5,4.5s-4.5-2-4.5-4.5v-21.9c0-29,23.5-52.7,52.5-52.7h32.8c4.8-5.4,11.8-8.8,19.6-8.8s12.7,2.4,17.4,6.6c4.8-4.3,10.9-6.6,17.4-6.6,14.5,0,26.3,11.8,26.3,26.4,0,6.2-2.2,12.3-6.2,17.1l-34,42.7c-.9,1.1-2.1,1.7-3.5,1.7ZM105.3,92.7c-9.5,0-17.3,7.8-17.3,17.4,0,4.1,1.5,8.1,4.1,11.3,0,0,0,0,0,.1l30.5,38.3,30.5-38.3s0,0,0-.1c2.7-3.1,4.2-7.2,4.1-11.3,0-9.6-7.8-17.4-17.3-17.4s-10.5,2.5-13.8,7c-.8,1.1-2.2,1.8-3.6,1.8s-2.8-.7-3.6-1.8c-3.3-4.4-8.3-7-13.8-7ZM39.9,171.5c-2.5,0-4.5-2-4.5-4.5v-26.3c0-2.5,2-4.5,4.5-4.5s4.5,2,4.5,4.5v26.3c0,2.5-2,4.5-4.5,4.5ZM74.8,79.6c-21.7,0-39.4-17.7-39.4-39.5S53.1.5,74.8.5s39.4,17.7,39.4,39.5h0c0,21.8-17.7,39.5-39.4,39.5ZM74.8,9.5c-16.8,0-30.4,13.7-30.4,30.5s13.6,30.5,30.4,30.5,30.4-13.7,30.4-30.5h0c0-8.2-3.2-15.8-8.9-21.6-5.7-5.8-13.4-8.9-21.5-8.9Z"/>
</svg>