<?xml version="1.0" encoding="UTF-8"?>
<svg id="Layer_1" data-name="Layer 1" xmlns="http://www.w3.org/2000/svg" version="1.1" viewBox="0 0 30 30">
  <defs>
    <style>
      .cls-1 {
        fill: #474747;
        stroke-width: 0px;
      }
    </style>
  </defs>
  <path class="cls-1" d="M28,29.5c-.4,0-.8-.1-1.1-.4l-7.1-7.1c-2.1,1.6-4.7,2.5-7.4,2.5C5.9,24.5.5,19.1.5,12.5S5.9.5,12.5.5s12,5.4,12,12c0,2.7-.9,5.3-2.5,7.4l7.1,7.1c.6.6.6,1.5,0,2.1s-.7.4-1.1.4ZM12.5,3.5C7.5,3.5,3.5,7.5,3.5,12.5s4,9,9,9,4.7-.9,6.4-2.6c1.7-1.7,2.6-4,2.6-6.4,0-5-4-9-9-9Z"/>
</svg>