<svg xmlns="http://www.w3.org/2000/svg" width="30" height="32" fill="none" viewBox="0 0 30 32">
  <path fill="#474747" d="M24.304 20.558c-1.83 0-3.463.877-4.507 2.233l-8.742-4.91a5.77 5.77 0 0 0 .317-1.888c0-.664-.112-1.295-.323-1.893l8.735-4.904a5.67 5.67 0 0 0 4.513 2.246c3.133 0 5.69-2.565 5.69-5.721S27.437 0 24.297 0c-3.138 0-5.69 2.565-5.69 5.72 0 .665.113 1.303.325 1.895l-8.73 4.903a5.651 5.651 0 0 0-4.513-2.246C2.557 10.272 0 12.837 0 15.993s2.557 5.721 5.696 5.721a5.68 5.68 0 0 0 4.52-2.252l8.736 4.91a5.725 5.725 0 0 0-.33 1.907c0 3.15 2.55 5.721 5.689 5.721C27.449 32 30 29.435 30 26.28c0-3.157-2.557-5.722-5.696-5.722Zm0-18.757c2.154 0 3.905 1.76 3.905 3.927 0 2.166-1.75 3.926-3.905 3.926-2.154 0-3.905-1.76-3.905-3.926 0-2.167 1.757-3.927 3.905-3.927ZM5.696 19.92c-2.154 0-3.905-1.761-3.905-3.928 0-2.166 1.75-3.927 3.905-3.927 2.154 0 3.905 1.761 3.905 3.927 0 2.167-1.757 3.927-3.905 3.927Zm18.608 10.278c-2.154 0-3.905-1.76-3.905-3.927 0-2.166 1.75-3.926 3.905-3.926 2.154 0 3.905 1.76 3.905 3.926 0 2.167-1.75 3.927-3.905 3.927Z"/>
</svg>
