<svg xmlns="http://www.w3.org/2000/svg" width="137" height="162" fill="none" viewBox="0 0 137 162">
  <path fill="#474747" d="M135.95 41.712c-.083-4.373-.162-8.505-.162-12.503a5.67 5.67 0 0 0-5.671-5.67c-24.25 0-42.714-6.97-58.104-21.933a5.67 5.67 0 0 0-7.907 0C48.718 16.57 30.256 23.539 6.008 23.539a5.67 5.67 0 0 0-5.67 5.67c0 3.998-.08 8.132-.163 12.506-.777 40.704-1.842 96.449 66.027 119.974a5.685 5.685 0 0 0 3.714 0c67.875-23.526 66.812-79.273 66.034-119.977ZM68.06 152.673C9.853 131.528 8.374 82.849 9.155 41.932c.047-2.456.092-7.195.124-9.529 22.712-.958 43.233-7.84 58.781-21.385 15.55 13.544 36.073 20.427 58.787 21.385.032 2.333.077 7.07.124 9.525.78 40.919-.7 89.599-58.911 110.745Z"/>
  <path fill="#474747" d="M87.587 61.303 60.216 88.67 48.54 76.991a5.671 5.671 0 0 0-8.019 8.02l15.688 15.688a5.652 5.652 0 0 0 4.01 1.66c1.45 0 2.902-.553 4.01-1.66l31.377-31.376a5.67 5.67 0 1 0-8.018-8.02Z"/>
</svg>
