<svg xmlns="http://www.w3.org/2000/svg" width="51" height="36" fill="none" viewBox="0 0 51 36">
  <path fill="#474747" d="M20.175 25.598V10.402L33.433 18l-13.258 7.598ZM49.666 5.62c-.583-2.212-2.302-3.955-4.485-4.546C41.226 0 25.363 0 25.363 0S9.5 0 5.544 1.075c-2.181.59-3.9 2.334-4.484 4.546C0 9.632 0 18.001 0 18.001s0 8.367 1.06 12.378c.584 2.212 2.302 3.955 4.485 4.546C9.501 36 25.364 36 25.364 36s15.863 0 19.818-1.075c2.183-.592 3.901-2.334 4.485-4.546 1.06-4.011 1.06-12.38 1.06-12.38s0-8.367-1.06-12.378"/>
</svg>
